<svg id="visual" viewBox="0 0 900 900" width="900" height="900" xmlns="http://www.w3.org/2000/svg" xmlns:xlink="http://www.w3.org/1999/xlink" version="1.1"><rect x="0" y="0" width="900" height="900" fill="#27272B"></rect><g transform="translate(431.24540420148946 491.41630780757487)"><path d="M249.4 -403.3C314.3 -346.4 351.8 -262.1 391.3 -178C430.8 -93.9 472.3 -10 461.4 66.4C450.6 142.9 387.4 211.9 315 244.6C242.6 277.2 160.9 273.6 85 301.1C9.2 328.6 -60.9 387.4 -131.7 392.3C-202.5 397.2 -273.9 348.2 -301.4 281C-328.9 213.7 -312.4 128.1 -340.1 39.3C-367.9 -49.5 -439.8 -141.6 -423.2 -199.7C-406.7 -257.9 -301.8 -282 -216.5 -329.6C-131.2 -377.1 -65.6 -448.1 13.3 -468.8C92.3 -489.6 184.5 -460.1 249.4 -403.3" fill="#1CE14E"></path></g></svg>