<svg id="visual" viewBox="0 0 900 900" width="900" height="900" xmlns="http://www.w3.org/2000/svg" xmlns:xlink="http://www.w3.org/1999/xlink" version="1.1"><rect x="0" y="0" width="900" height="900" fill="#27272B"></rect><g transform="translate(493.5475091454123 414.02754099829974)"><path d="M213.6 -325.4C274.4 -293.3 319.6 -230 345.9 -161.2C372.2 -92.5 379.6 -18.4 380.3 62.6C380.9 143.6 374.9 231.6 323.6 267.3C272.3 303 175.8 286.4 88.7 320.3C1.6 354.2 -75.9 438.6 -141.8 439.2C-207.7 439.9 -261.8 356.8 -329 283C-396.2 209.2 -476.5 144.6 -466.6 79.5C-456.7 14.3 -356.6 -51.4 -305.1 -129C-253.5 -206.5 -250.6 -295.9 -207.8 -336.2C-165.1 -376.5 -82.5 -367.8 -3.1 -363C76.4 -358.2 152.8 -357.5 213.6 -325.4" fill="#1CE14E"></path></g></svg>