<svg id="visual" viewBox="0 0 900 900" width="900" height="900" xmlns="http://www.w3.org/2000/svg" xmlns:xlink="http://www.w3.org/1999/xlink" version="1.1"><rect x="0" y="0" width="900" height="900" fill="#27272B"></rect><g transform="translate(509.36112344468006 440.08423695370254)"><path d="M268.2 -392.3C333.7 -375.3 363.3 -277.4 363.5 -191.2C363.6 -105 334.2 -30.6 305.1 30.9C276 92.3 247.2 140.8 217.3 204.6C187.4 268.5 156.4 347.7 99.5 386.1C42.5 424.4 -40.3 421.9 -111.3 394.1C-182.3 366.4 -241.6 313.5 -312.1 256.7C-382.7 199.9 -464.5 139.3 -479.6 66C-494.6 -7.2 -442.9 -92.9 -384.5 -156.9C-326.2 -220.9 -261.2 -263.1 -196 -280.2C-130.8 -297.3 -65.4 -289.3 18 -317.3C101.4 -345.2 202.7 -409.2 268.2 -392.3" fill="#1CE14E"></path></g></svg>