<svg id="visual" viewBox="0 0 900 900" width="900" height="900" xmlns="http://www.w3.org/2000/svg" xmlns:xlink="http://www.w3.org/1999/xlink" version="1.1"><rect x="0" y="0" width="900" height="900" fill="#27272B"></rect><g transform="translate(477.25371068450386 510.24914354682335)"><path d="M189.1 -323.1C248.1 -256.3 301 -209 340.4 -148C379.8 -87 405.7 -12.5 403.5 63.7C401.3 139.8 371.1 217.6 312.4 252.2C253.6 286.9 166.4 278.4 89.1 299C11.8 319.7 -55.7 369.5 -120.5 369.3C-185.4 369 -247.6 318.8 -310.9 260.9C-374.2 203.1 -438.5 137.7 -454.2 62.2C-469.8 -13.3 -436.9 -98.9 -393.3 -173.6C-349.8 -248.3 -295.7 -312.2 -228.4 -375.2C-161.1 -438.2 -80.6 -500.3 -7.7 -488.3C65.1 -476.2 130.1 -390 189.1 -323.1" fill="#1CE14E"></path></g></svg>