<svg id="visual" viewBox="0 0 900 900" width="900" height="900" xmlns="http://www.w3.org/2000/svg" xmlns:xlink="http://www.w3.org/1999/xlink" version="1.1"><rect x="0" y="0" width="900" height="900" fill="#27272B"></rect><g transform="translate(501.02284017369436 434.05597000950263)"><path d="M193.6 -300.6C240.1 -271.3 259.7 -199.4 269.3 -135.6C279 -71.7 278.7 -15.8 294.1 59.1C309.5 134.1 340.7 228.1 309.9 274.7C279.2 321.3 186.5 320.4 100.1 350C13.6 379.6 -66.6 439.8 -140 436.6C-213.5 433.5 -280.2 367 -308 291.2C-335.9 215.4 -324.8 130.3 -347.5 43.4C-370.2 -43.5 -426.6 -132 -425 -218.4C-423.4 -304.8 -363.7 -389 -283.2 -402.7C-202.7 -416.5 -101.4 -359.7 -13.9 -338.1C73.5 -316.4 147.1 -329.8 193.6 -300.6" fill="#1CE14E"></path></g></svg>