<svg id="visual" viewBox="0 0 900 900" width="900" height="900" xmlns="http://www.w3.org/2000/svg" xmlns:xlink="http://www.w3.org/1999/xlink" version="1.1"><rect x="0" y="0" width="900" height="900" fill="#27272B"></rect><g transform="translate(480.80122513883873 519.8035153271285)"><path d="M263.2 -409.2C307.8 -329.9 287.7 -208.4 315.1 -106.5C342.5 -4.6 417.6 77.7 418.3 154.5C419 231.3 345.3 302.5 263.1 332.4C181 362.2 90.5 350.6 -4.3 356.5C-99.1 362.5 -198.3 385.9 -283.7 357.2C-369.2 328.4 -440.9 247.5 -467.6 154.5C-494.2 61.5 -475.8 -43.6 -430.5 -126.5C-385.1 -209.4 -312.8 -270.1 -236.5 -339.1C-160.3 -408.1 -80.1 -485.3 14.6 -505.4C109.3 -525.5 218.7 -488.5 263.2 -409.2" fill="#1CE14E"></path></g></svg>