<svg id="visual" viewBox="0 0 900 900" width="900" height="900" xmlns="http://www.w3.org/2000/svg" xmlns:xlink="http://www.w3.org/1999/xlink" version="1.1"><rect x="0" y="0" width="900" height="900" fill="#27272B"></rect><g transform="translate(381.6827751962327 430.0770719586176)"><path d="M261.6 -396.3C322.3 -367.9 343.6 -267.2 369.7 -178.2C395.9 -89.1 427.1 -11.6 410.7 54.6C394.2 120.8 330.1 175.6 280.1 254.6C230.2 333.6 194.3 436.6 136.3 444.8C78.3 452.9 -1.8 366 -74.7 316.4C-147.6 266.7 -213.2 254.2 -246 214.3C-278.7 174.4 -278.6 107.2 -278.6 45.7C-278.7 -15.8 -279 -71.7 -263.4 -126.3C-247.8 -180.9 -216.4 -234.3 -169.8 -269.2C-123.3 -304.1 -61.6 -320.6 19.4 -350.7C100.4 -380.9 200.8 -424.7 261.6 -396.3" fill="#1CE14E"></path></g></svg>