<svg id="visual" viewBox="0 0 900 900" width="900" height="900" xmlns="http://www.w3.org/2000/svg" xmlns:xlink="http://www.w3.org/1999/xlink" version="1.1"><rect x="0" y="0" width="900" height="900" fill="#27272B"></rect><g transform="translate(489.7014352289558 395.4770946884014)"><path d="M198.7 -329C241.3 -281.8 248.6 -199.3 285.3 -127.7C322 -56.1 388.2 4.6 384.2 57.6C380.2 110.6 306.1 155.8 253.2 222.6C200.3 289.5 168.6 377.9 103.9 433C39.3 488.1 -58.4 509.8 -122.7 468C-186.9 426.2 -217.8 320.8 -284.6 245.6C-351.4 170.3 -454.1 125.2 -463.1 66.2C-472.2 7.3 -387.5 -65.5 -326.5 -128.4C-265.6 -191.2 -228.2 -244.1 -177.7 -287.7C-127.2 -331.3 -63.6 -365.7 7.2 -376.9C78 -388.1 156.1 -376.2 198.7 -329" fill="#1CE14E"></path></g></svg>