<svg id="visual" viewBox="0 0 900 900" width="900" height="900" xmlns="http://www.w3.org/2000/svg" xmlns:xlink="http://www.w3.org/1999/xlink" version="1.1"><rect x="0" y="0" width="900" height="900" fill="#27272B"></rect><g transform="translate(498.4533421844583 462.70496561383135)"><path d="M206.4 -318.5C254.9 -290 273 -211.4 288.8 -142.1C304.6 -72.7 318.1 -12.5 309.4 44.1C300.7 100.8 269.7 153.8 227.9 191.5C186 229.1 133.1 251.3 71.7 290.4C10.3 329.4 -59.6 385.4 -117.4 378.2C-175.1 371.1 -220.5 300.8 -245.3 233.9C-270.1 167 -274.3 103.5 -307.9 29.5C-341.4 -44.5 -404.5 -129 -408.8 -214.5C-413.1 -300.1 -358.6 -386.6 -280.7 -401.7C-202.7 -416.8 -101.4 -360.4 -11.2 -342.9C78.9 -325.5 157.9 -347 206.4 -318.5" fill="#1CE14E"></path></g></svg>