<svg id="visual" viewBox="0 0 900 900" width="900" height="900" xmlns="http://www.w3.org/2000/svg" xmlns:xlink="http://www.w3.org/1999/xlink" version="1.1"><rect x="0" y="0" width="900" height="900" fill="#27272B"></rect><g transform="translate(508.67629537192863 454.79375553090836)"><path d="M236 -368C305.4 -322.5 361 -256.4 376.1 -183.5C391.2 -110.5 365.9 -30.8 331.9 31.6C297.9 94 255.2 139.1 221.3 208.7C187.3 278.2 162.1 372.3 107.4 407.3C52.7 442.3 -31.6 418.3 -91.4 372.7C-151.3 327.1 -186.7 259.8 -252.1 206.2C-317.4 152.7 -412.6 112.8 -460.8 41.8C-509.1 -29.2 -510.4 -131.4 -463.9 -203.1C-417.5 -274.7 -323.4 -315.7 -238.1 -353.9C-152.8 -392.1 -76.4 -427.6 3.4 -432.9C83.3 -438.2 166.5 -413.4 236 -368" fill="#1CE14E"></path></g></svg>